{
	"asset":{
		"generator":"Khronos glTF Blender I/O v4.0.43",
		"version":"2.0"
	},
	"scene":0,
	"scenes":[
		{
			"name":"Scene",
			"nodes":[
				0
			]
		}
	],
	"nodes":[
		{
			"mesh":0,
			"name":"room",
			"scale":[
				0.2612941265106201,
				0.2612941265106201,
				0.2612941265106201
			],
			"translation":[
				-0.1826588362455368,
				0.0001012459397315979,
				0.16736578941345215
			]
		}
	],
	"materials":[
		{
			"doubleSided":true,
			"name":"BakedText",
			"normalTexture":{
				"index":0
			},
			"pbrMetallicRoughness":{
				"baseColorTexture":{
					"index":1
				},
				"metallicFactor":0,
				"roughnessFactor":0.5
			}
		},
		{
			"alphaMode":"BLEND",
			"doubleSided":true,
			"name":"Reflective",
			"pbrMetallicRoughness":{
				"baseColorFactor":[
					0.0538179986178875,
					0.060452431440353394,
					0.04762893170118332,
					0.10000000149011612
				],
				"metallicFactor":0,
				"roughnessFactor":0
			}
		}
	],
	"meshes":[
		{
			"name":"BezierCurve.002",
			"primitives":[
				{
					"attributes":{
						"POSITION":0,
						"NORMAL":1,
						"TEXCOORD_0":2
					},
					"indices":3,
					"material":0
				},
				{
					"attributes":{
						"POSITION":4,
						"NORMAL":5,
						"TEXCOORD_0":6
					},
					"indices":7,
					"material":1
				}
			]
		}
	],
	"textures":[
		{
			"sampler":0,
			"source":0
		},
		{
			"sampler":0,
			"source":1
		}
	],
	"images":[
		{
			"mimeType":"image/png",
			"name":"Normal",
			"uri":"Normal.png"
		},
		{
			"mimeType":"image/png",
			"name":"Color",
			"uri":"Color.png"
		}
	],
	"accessors":[
		{
			"bufferView":0,
			"componentType":5126,
			"count":21452,
			"max":[
				4.526159286499023,
				8.810213088989258,
				3.1865782737731934
			],
			"min":[
				-3.510760545730591,
				-0.3830978274345398,
				-4.850341320037842
			],
			"type":"VEC3"
		},
		{
			"bufferView":1,
			"componentType":5126,
			"count":21452,
			"type":"VEC3"
		},
		{
			"bufferView":2,
			"componentType":5126,
			"count":21452,
			"type":"VEC2"
		},
		{
			"bufferView":3,
			"componentType":5123,
			"count":77157,
			"type":"SCALAR"
		},
		{
			"bufferView":4,
			"componentType":5126,
			"count":289,
			"max":[
				0.05357116460800171,
				2.6692047119140625,
				-1.6049349308013916
			],
			"min":[
				-1.2665369510650635,
				1.4616124629974365,
				-2.12770414352417
			],
			"type":"VEC3"
		},
		{
			"bufferView":5,
			"componentType":5126,
			"count":289,
			"type":"VEC3"
		},
		{
			"bufferView":6,
			"componentType":5126,
			"count":289,
			"type":"VEC2"
		},
		{
			"bufferView":7,
			"componentType":5123,
			"count":1536,
			"type":"SCALAR"
		}
	],
	"bufferViews":[
		{
			"buffer":0,
			"byteLength":257424,
			"byteOffset":0,
			"target":34962
		},
		{
			"buffer":0,
			"byteLength":257424,
			"byteOffset":257424,
			"target":34962
		},
		{
			"buffer":0,
			"byteLength":171616,
			"byteOffset":514848,
			"target":34962
		},
		{
			"buffer":0,
			"byteLength":154314,
			"byteOffset":686464,
			"target":34963
		},
		{
			"buffer":0,
			"byteLength":3468,
			"byteOffset":840780,
			"target":34962
		},
		{
			"buffer":0,
			"byteLength":3468,
			"byteOffset":844248,
			"target":34962
		},
		{
			"buffer":0,
			"byteLength":2312,
			"byteOffset":847716,
			"target":34962
		},
		{
			"buffer":0,
			"byteLength":3072,
			"byteOffset":850028,
			"target":34963
		}
	],
	"samplers":[
		{
			"magFilter":9729,
			"minFilter":9987
		}
	],
	"buffers":[
		{
			"byteLength":853100,
			"uri":"room.bin"
		}
	]
}
