<svg width="48" height="48" viewBox="0 0 48 48" fill="none" xmlns="http://www.w3.org/2000/svg">
<rect width="48" height="48" rx="0.633962" fill="#333333"/>
<path d="M24.0005 6.79248C19.3269 6.79248 18.7419 6.81313 16.9058 6.89573C15.075 6.98004 13.824 7.27085 12.7296 7.69588C11.5809 8.12752 10.5403 8.80461 9.68039 9.67991C8.80514 10.5399 8.12806 11.5805 7.69636 12.7291C7.27134 13.8235 6.98053 15.0745 6.89621 16.9054C6.8119 18.7414 6.79297 19.3265 6.79297 24C6.79297 28.6736 6.8119 29.2587 6.89621 31.0947C6.98053 32.9256 7.27134 34.1766 7.69636 35.271C8.12811 36.4195 8.80519 37.4601 9.68039 38.3201C10.5404 39.1954 11.581 39.8724 12.7296 40.3042C13.824 40.7292 15.075 41.02 16.9058 41.1043C18.7419 41.1869 19.3269 41.2076 24.0005 41.2076C28.6741 41.2076 29.2591 41.1869 31.0952 41.1043C32.9261 41.02 34.1771 40.7292 35.2715 40.3042C36.4201 39.8725 37.4606 39.1954 38.3206 38.3201C39.1959 37.4602 39.873 36.4196 40.3047 35.271C40.7297 34.1766 41.0205 32.9256 41.1048 31.0947C41.1874 29.2587 41.2081 28.6736 41.2081 24C41.2081 19.3265 41.1874 18.7414 41.1048 16.9054C41.0205 15.0745 40.7297 13.8235 40.3047 12.7291C39.873 11.5805 39.1959 10.5399 38.3206 9.67991C37.4607 8.80461 36.4201 8.12752 35.2715 7.69588C34.1771 7.27085 32.9261 6.98004 31.0952 6.89573C29.2591 6.81313 28.6741 6.79248 24.0005 6.79248ZM24.0005 9.89328C28.5949 9.89328 29.1387 9.91049 30.9524 9.99308C32.6318 10.0705 33.5421 10.3493 34.1495 10.585C34.9514 10.8982 35.5261 11.2716 36.1284 11.8721C36.7307 12.4744 37.1023 13.0491 37.4155 13.851C37.6495 14.4584 37.9317 15.3687 38.0075 17.0465C38.0901 18.8619 38.1073 19.4039 38.1073 24C38.1073 28.5944 38.0901 29.1382 38.0075 30.9519C37.93 32.6313 37.6495 33.5416 37.4155 34.149C37.1396 34.8965 36.6998 35.5727 36.1284 36.1279C35.5261 36.7302 34.9514 37.1019 34.1495 37.415C33.5421 37.6491 32.6318 37.9313 30.9541 38.007C29.1404 38.0896 28.5966 38.1068 24.0005 38.1068C19.4061 38.1068 18.8606 38.0896 17.0487 38.007C15.3692 37.9295 14.4589 37.6491 13.8515 37.415C13.104 37.1393 12.4278 36.6994 11.8726 36.1279C11.3011 35.5728 10.8613 34.8966 10.5855 34.149C10.3498 33.5416 10.0693 32.6313 9.99357 30.9536C9.91098 29.1382 9.89377 28.5962 9.89377 24C9.89377 19.4056 9.91098 18.8619 9.99357 17.0482C10.071 15.3687 10.3498 14.4584 10.5855 13.851C10.8987 13.0491 11.2721 12.4744 11.8726 11.8721C12.4749 11.2699 13.0496 10.8982 13.8515 10.585C14.4589 10.3493 15.3692 10.0688 17.0469 9.99308C18.8623 9.91049 19.4044 9.89328 24.0005 9.89328ZM24.0005 29.7353C22.4794 29.7353 21.0206 29.131 19.9451 28.0555C18.8695 26.9799 18.2652 25.5211 18.2652 24C18.2652 22.4789 18.8695 21.0201 19.9451 19.9446C21.0206 18.869 22.4794 18.2647 24.0005 18.2647C25.5216 18.2647 26.9804 18.869 28.056 19.9446C29.1315 21.0201 29.7358 22.4789 29.7358 24C29.7358 25.5211 29.1315 26.9799 28.056 28.0555C26.9804 29.131 25.5216 29.7353 24.0005 29.7353ZM24.0005 15.164C22.8401 15.164 21.6911 15.3925 20.6191 15.8366C19.5471 16.2806 18.573 16.9315 17.7525 17.752C16.932 18.5725 16.2811 19.5466 15.837 20.6186C15.393 21.6906 15.1644 22.8397 15.1644 24C15.1644 25.1604 15.393 26.3094 15.837 27.3814C16.2811 28.4535 16.932 29.4276 17.7525 30.2481C18.573 31.0686 19.5471 31.7194 20.6191 32.1635C21.6911 32.6075 22.8401 32.8361 24.0005 32.8361C26.344 32.8361 28.5915 31.9052 30.2486 30.2481C31.9056 28.591 32.8366 26.3435 32.8366 24C32.8366 21.6566 31.9056 19.4091 30.2486 17.752C28.5915 16.0949 26.344 15.164 24.0005 15.164ZM35.2508 14.8146C35.2508 15.3623 35.0333 15.8875 34.646 16.2747C34.2588 16.662 33.7335 16.8795 33.1859 16.8795C32.6383 16.8795 32.113 16.662 31.7258 16.2747C31.3385 15.8875 31.121 15.3623 31.121 14.8146C31.121 14.267 31.3385 13.7418 31.7258 13.3545C32.113 12.9673 32.6383 12.7497 33.1859 12.7497C33.7335 12.7497 34.2588 12.9673 34.646 13.3545C35.0333 13.7418 35.2508 14.267 35.2508 14.8146Z" fill="#F2F2F2"/>
</svg>
