<svg width="48" height="48" viewBox="0 0 48 48" fill="none" xmlns="http://www.w3.org/2000/svg">
<rect width="48" height="48" rx="0.633962" fill="#333333"/>
<path d="M41.2042 41.1474H34.0974V30.0179C34.0974 27.3639 34.05 23.9475 30.4011 23.9475C26.6997 23.9475 26.1333 26.8391 26.1333 29.8247V41.1467H19.0265V18.2598H25.8491V21.3876H25.9446C26.6273 20.2202 27.614 19.2598 28.7994 18.6088C29.9848 17.9577 31.3245 17.6404 32.676 17.6906C39.879 17.6906 41.2071 22.4284 41.2071 28.5921L41.2042 41.1474ZM11.0077 15.1314C10.192 15.1315 9.39462 14.8898 8.71633 14.4367C8.03803 13.9837 7.50931 13.3397 7.19703 12.5861C6.88475 11.8326 6.80293 11.0034 6.96191 10.2034C7.1209 9.40332 7.51356 8.6684 8.09023 8.09152C8.6669 7.51464 9.40168 7.12172 10.2017 6.96245C11.0016 6.80317 11.8309 6.8847 12.5845 7.19671C13.3382 7.50872 13.9824 8.03721 14.4357 8.71534C14.889 9.39347 15.131 10.1908 15.1311 11.0065C15.1312 11.5481 15.0247 12.0844 14.8175 12.5848C14.6103 13.0852 14.3066 13.5399 13.9237 13.9229C13.5408 14.3059 13.0862 14.6098 12.5859 14.8172C12.0856 15.0245 11.5493 15.1313 11.0077 15.1314ZM14.5611 41.1474H7.44692V18.2598H14.5611V41.1474Z" fill="#F2F2F2"/>
</svg>
