<svg width="48" height="48" viewBox="0 0 48 48" fill="none" xmlns="http://www.w3.org/2000/svg">
<rect width="48" height="48" rx="0.633962" fill="#333333"/>
<path d="M17.0107 8.00004C16.9598 8.00044 16.9091 8.00606 16.8594 8.01682C16.4474 8.10559 16.1848 8.50973 16.274 8.92161C16.3628 9.33291 16.7673 9.59564 17.1788 9.50701C17.3767 9.46422 17.5496 9.3446 17.6593 9.17443C17.7691 9.00426 17.8068 8.79747 17.7642 8.5995C17.6865 8.23954 17.3652 7.99631 17.0107 8.00004ZM26.2679 8.91601C26.0083 8.91504 25.7534 8.98576 25.5314 9.12037C24.8576 9.52451 24.6369 10.3965 25.0412 11.0699C25.4459 11.7434 26.3203 11.9614 26.9935 11.5574C27.6672 11.1528 27.885 10.2809 27.4809 9.60783C27.3553 9.39796 27.1776 9.22403 26.9652 9.10284C26.7527 8.98166 26.5125 8.91731 26.2679 8.91601ZM21.9237 12.1231C20.5263 12.1299 19.1179 12.5419 17.8789 13.3976C16.6248 14.264 15.7328 15.457 15.2293 16.7811C14.5 16.8799 13.7814 17.1239 13.134 17.571C10.9946 19.0492 10.4293 21.9295 11.7868 24.1142C9.94454 25.801 9.51875 28.611 10.9184 30.7807C11.7488 32.0671 13.0527 32.8415 14.4534 33.0718C14.4792 34.1216 14.7947 35.1742 15.4365 36.1025C17.1918 38.6422 20.6747 39.2801 23.2148 37.5255C23.3119 37.4581 23.3867 37.3733 23.4781 37.3013C24.8939 38.5646 27.0216 38.772 28.6517 37.6459C29.5215 37.0452 30.0757 36.17 30.3182 35.2203C31.5938 35.267 32.8933 34.9428 34.0239 34.1615C36.7367 32.2875 37.4651 28.6236 35.7298 25.8594C37.1228 24.6848 37.4218 22.6306 36.3516 21.1143C35.8745 20.4377 35.2003 19.9948 34.4638 19.7754C34.5716 18.3643 34.2194 16.9102 33.3518 15.6552C31.6606 13.2089 28.5723 12.3116 25.9011 13.2799C24.7142 12.5195 23.3333 12.1178 21.9237 12.1231ZM13.8875 13.2939C13.6701 13.2962 13.4585 13.3636 13.2797 13.4873C12.7854 13.829 12.6606 14.505 13.0024 14.9997C13.3443 15.494 14.0229 15.6188 14.5178 15.277C14.6354 15.196 14.7359 15.0926 14.8136 14.9727C14.8912 14.8528 14.9444 14.7187 14.9701 14.5783C14.9959 14.4378 14.9937 14.2936 14.9636 14.1539C14.9336 14.0143 14.8763 13.8819 14.795 13.7645C14.6939 13.6177 14.5583 13.4979 14.4 13.4159C14.2417 13.3338 14.0657 13.292 13.8875 13.2939ZM36.8252 16.6941C36.5836 16.6969 36.3485 16.7721 36.1501 16.9099C35.9529 17.0462 35.8004 17.2379 35.7121 17.4609C35.6238 17.6838 35.6036 17.9279 35.6541 18.1623C35.7045 18.3967 35.8233 18.6109 35.9955 18.7778C36.1677 18.9447 36.3855 19.0567 36.6213 19.0998C36.8572 19.1429 37.1006 19.1151 37.3206 19.0199C37.5407 18.9246 37.7276 18.7663 37.8576 18.5649C37.9877 18.3634 38.0551 18.1279 38.0513 17.8882C38.0475 17.6484 37.9727 17.4152 37.8364 17.218C37.7236 17.0545 37.5724 16.9213 37.3961 16.83C37.2198 16.7386 37.0237 16.6919 36.8252 16.6941ZM25.1366 18.1675C25.2268 18.1681 25.315 18.1751 25.397 18.1871C25.7248 18.2353 25.9212 18.3578 26.0441 18.456C26.2853 18.6485 26.435 18.8019 26.663 19.0191C27.0064 19.3453 27.2556 19.1467 27.4277 19.047C27.726 18.8737 27.9572 18.7343 28.8394 18.7502C29.7475 18.766 30.7936 19.0895 31.0103 20.638C31.2515 22.3581 28.1914 26.7891 28.4053 28.8449C28.5565 30.2938 31.0077 29.2733 31.2148 30.5955C31.4832 32.3122 28.1525 31.674 27.3914 31.3014C26.1982 30.7167 25.474 29.3798 25.7836 28.0607C26.0148 27.0738 28.2216 23.0443 28.3045 22.4251C28.3887 21.7935 28.0503 21.741 27.8396 21.7304C27.5678 21.7164 27.3528 21.8463 27.0861 22.2486C26.8434 22.6154 24.1003 28.1078 23.8622 28.5565C23.4364 29.3588 22.9016 29.5515 22.3636 29.5228C21.5788 29.482 21.2194 29.063 21.3327 28.3071C21.3997 27.8625 23.1388 23.9344 23.229 23.3214C23.2845 22.9424 23.2101 22.5395 22.8341 22.3467C22.4576 22.1536 22.0148 22.4476 21.8818 22.6716C21.6983 22.9805 19.2313 29.4213 18.9687 29.8981C18.5144 30.7242 18.0354 30.9872 17.3162 31.0213C15.615 31.1019 14.3539 29.7034 14.91 27.9879C15.1581 27.2238 16.7972 21.4317 17.6271 19.9574C18.1845 18.9664 19.7322 18.2128 20.8061 18.6775C21.3623 18.9183 22.1329 19.3052 22.3607 19.4057C22.8856 19.6383 23.4498 19.0076 23.6715 18.8147C23.8936 18.6218 24.1041 18.4182 24.3745 18.3022C24.577 18.2154 24.8659 18.1662 25.1366 18.1675ZM40.7409 21.117C40.6956 21.1181 40.6506 21.1237 40.6065 21.1338C40.5204 21.1522 40.4388 21.1873 40.3663 21.2372C40.2937 21.2871 40.2318 21.3509 40.1839 21.4247C40.136 21.4986 40.1032 21.5812 40.0873 21.6678C40.0714 21.7544 40.0727 21.8432 40.0911 21.9293C40.129 22.1033 40.2342 22.2553 40.3839 22.3519C40.5335 22.4485 40.7153 22.4819 40.8895 22.4447C41.2513 22.3664 41.4832 22.0082 41.4047 21.6464C41.3717 21.4953 41.2876 21.3603 41.1667 21.2639C41.0459 21.1675 40.8955 21.1157 40.7409 21.117ZM8.44531 22.2794C8.21068 22.2772 7.97911 22.3328 7.77102 22.4412C7.56294 22.5497 7.38474 22.7076 7.25213 22.9012C6.80425 23.5542 6.9686 24.4478 7.62184 24.8955C8.27508 25.3434 9.16825 25.176 9.61613 24.5231C10.064 23.8701 9.89965 22.9792 9.24641 22.5315C9.01055 22.3693 8.73153 22.2815 8.44531 22.2794ZM38.9848 25.2821C38.9236 25.2825 38.8626 25.289 38.8027 25.3016C38.6871 25.3265 38.5776 25.374 38.4804 25.4412C38.3832 25.5085 38.3002 25.5943 38.2362 25.6937C38.1722 25.7931 38.1284 25.9041 38.1074 26.0205C38.0863 26.1368 38.0884 26.2561 38.1136 26.3716C38.1383 26.4874 38.1856 26.5971 38.2528 26.6945C38.32 26.792 38.4057 26.8752 38.5051 26.9395C38.6045 27.0037 38.7156 27.0478 38.832 27.0691C38.9484 27.0904 39.0679 27.0885 39.1836 27.0636C39.6702 26.9585 39.9807 26.4799 39.8754 25.9936C39.8314 25.7907 39.7188 25.6091 39.5566 25.4795C39.3944 25.3499 39.1924 25.2802 38.9848 25.2821ZM12.8258 34.0268C12.7815 34.0279 12.7374 34.0335 12.6942 34.0436C12.3346 34.1215 12.1037 34.4764 12.1816 34.8364C12.2591 35.1963 12.6147 35.4239 12.9743 35.3461C13.0598 35.3275 13.1409 35.2923 13.2128 35.2425C13.2847 35.1926 13.3461 35.129 13.3935 35.0554C13.4408 34.9818 13.4732 34.8996 13.4887 34.8134C13.5043 34.7273 13.5027 34.6389 13.4841 34.5534C13.4517 34.4033 13.3685 34.269 13.2486 34.1731C13.1287 34.0771 12.9794 34.0255 12.8258 34.0268ZM32.4385 36.2508C32.139 36.2538 31.8473 36.3465 31.601 36.517C30.9186 36.9884 30.7484 37.9243 31.2201 38.6065C31.6916 39.2886 32.6268 39.4588 33.3096 38.9874C33.9919 38.516 34.1622 37.58 33.6905 36.8979C33.5509 36.6956 33.3637 36.5308 33.1454 36.4179C32.927 36.3051 32.6843 36.2477 32.4385 36.2508ZM23.3491 38.9762C23.1647 38.9785 22.9852 39.0361 22.8338 39.1414C22.7337 39.2106 22.6482 39.2988 22.5822 39.4009C22.5162 39.5031 22.471 39.6173 22.4492 39.737C22.4274 39.8566 22.4293 39.9794 22.4549 40.0984C22.4806 40.2173 22.5294 40.33 22.5986 40.43C22.6678 40.53 22.7559 40.6155 22.8581 40.6815C22.9603 40.7474 23.0744 40.7926 23.1941 40.8145C23.3137 40.8363 23.4365 40.8344 23.5554 40.8088C23.6743 40.7831 23.787 40.7344 23.887 40.6652C23.9871 40.5961 24.0725 40.5079 24.1385 40.4057C24.2045 40.3035 24.2497 40.1894 24.2715 40.0697C24.2934 39.9501 24.2914 39.8273 24.2658 39.7084C24.2402 39.5895 24.1914 39.4768 24.1222 39.3768C24.036 39.2518 23.9205 39.1499 23.7857 39.0801C23.6509 39.0102 23.5009 38.9746 23.3491 38.9762Z" fill="#F2F2F2"/>
</svg>
