<svg width="132" height="132" viewBox="0 0 132 132" fill="none" xmlns="http://www.w3.org/2000/svg">
<path d="M45 115V87C45 87 38.732 87 31 87H17C9.26801 87 3 80.732 3 73V59C3 51.268 9.26801 45 17 45H45C45 45 45 38.732 45 31V17C45 9.26801 51.268 3 59 3H73C80.732 3 87 9.26801 87 17V31C87 38.732 87 45 87 45H115C122.732 45 129 51.268 129 59V73C129 80.732 122.732 87 115 87C115 87 94.732 87 87 87C87 87 87 93.268 87 101V115C87 122.732 80.732 129 73 129H59C51.268 129 45 122.732 45 115Z" stroke="white" stroke-width="6"/>
</svg>
