<svg width="126" height="126" viewBox="0 0 126 126" fill="none" xmlns="http://www.w3.org/2000/svg">
<path d="M42 112V84C42 84 35.732 84 28 84H14C6.26801 84 0 77.732 0 70V56C0 48.268 6.26801 42 14 42H42C42 42 42 35.732 42 28V14C42 6.26801 48.268 0 56 0H70C77.732 0 84 6.26801 84 14V28C84 35.732 84 42 84 42H112C119.732 42 126 48.268 126 56V70C126 77.732 119.732 84 112 84C112 84 91.732 84 84 84C84 84 84 90.268 84 98V112C84 119.732 77.732 126 70 126H56C48.268 126 42 119.732 42 112Z" fill="#645299"/>
</svg>
